HIERARCHY
ROOT RootJoint
{
    OFFSET   0.000000   0.000000   0.000000
    CHANNELS 6 Xposition Yposition Zposition Xrotation Yrotation Zrotation
    JOINT pelvis_lowerback
    {
        OFFSET   0.000000   0.093605   0.000000
        CHANNELS 3 Xrotation Yrotation Zrotation
        JOINT lowerback_torso
        {
            OFFSET   0.000000   0.100000   0.000000
            CHANNELS 3 Xrotation Yrotation Zrotation
            JOINT torso_head
            {
                OFFSET   0.000000   0.282350   0.000000
                CHANNELS 3 Xrotation Yrotation Zrotation
                End Site
                {
                    OFFSET   0.000000   0.192650   0.000000
                }
            }
            JOINT rTorso_Clavicle
            {
                OFFSET  -0.001000   0.157500   0.000000
                CHANNELS 3 Xrotation Yrotation Zrotation
                JOINT rShoulder
                {
                    OFFSET  -0.117647   0.000000   0.000000
                    CHANNELS 3 Xrotation Yrotation Zrotation
                    JOINT rElbow
                    {
                        OFFSET  -0.245000   0.000000   0.000000
                        CHANNELS 3 Xrotation Yrotation Zrotation
                        JOINT rWrist
                        {
                            OFFSET  -0.240000   0.000000   0.000000
                            CHANNELS 3 Xrotation Yrotation Zrotation
                            End Site
                            {
                                OFFSET  -0.116353  -0.002500   0.000000
                            }
                        }
                    }
                }
            }
            JOINT lTorso_Clavicle
            {
                OFFSET   0.001000   0.157500   0.000000
                CHANNELS 3 Xrotation Yrotation Zrotation
                JOINT lShoulder
                {
                    OFFSET   0.117647   0.000000   0.000000
                    CHANNELS 3 Xrotation Yrotation Zrotation
                    JOINT lElbow
                    {
                        OFFSET   0.245000   0.000000   0.000000
                        CHANNELS 3 Xrotation Yrotation Zrotation
                        JOINT lWrist
                        {
                            OFFSET   0.240000   0.000000   0.000000
                            CHANNELS 3 Xrotation Yrotation Zrotation
                            End Site
                            {
                                OFFSET   0.116353  -0.002500   0.000000
                            }
                        }
                    }
                }
            }
        }
    }
    JOINT rHip
    {
        OFFSET  -0.100000  -0.051395   0.000000
        CHANNELS 3 Xrotation Yrotation Zrotation
        JOINT rKnee
        {
            OFFSET   0.000000  -0.410000   0.000000
            CHANNELS 3 Xrotation Yrotation Zrotation
            JOINT rAnkle
            {
                OFFSET   0.000000  -0.390000   0.000000
                CHANNELS 3 Xrotation Yrotation Zrotation
                JOINT rToeJoint
                {
                    OFFSET   0.000000  -0.050000   0.130000
                    CHANNELS 3 Xrotation Yrotation Zrotation
                    End Site
                    {
                        OFFSET  -0.010000   0.002000   0.060000
                    }
                }
            }
        }
    }
    JOINT lHip
    {
        OFFSET   0.100000  -0.051395   0.000000
        CHANNELS 3 Xrotation Yrotation Zrotation
        JOINT lKnee
        {
            OFFSET   0.000000  -0.410000   0.000000
            CHANNELS 3 Xrotation Yrotation Zrotation
            JOINT lAnkle
            {
                OFFSET   0.000000  -0.390000   0.000000
                CHANNELS 3 Xrotation Yrotation Zrotation
                JOINT lToeJoint
                {
                    OFFSET   0.000000  -0.050000   0.130000
                    CHANNELS 3 Xrotation Yrotation Zrotation
                    End Site
                    {
                        OFFSET   0.010000   0.002000   0.060000
                    }
                }
            }
        }
    }
}
MOTION
Frames: 17
Frame Time:   0.008333
 -2.376719   0.925631   3.975860   0.000000   0.000000   0.000000   0.000000   0.000000   0.000000   0.000000   0.000000   0.000000   0.000000   0.000000   0.000000   0.000000   0.000000   0.000000   0.000000   0.000000   0.000000   0.000000   0.000000   0.000000   0.000000   0.000000   0.000000   0.000000   0.000000   0.000000   0.000000   0.000000   0.000000   0.000000   0.000000   0.000000   0.000000   0.000000   0.000000   0.000000   0.000000   0.000000   0.000000   0.000000   0.000000   0.000000   0.000000   0.000000   0.000000   0.000000   0.000000   0.000000   0.000000   0.000000   0.000000   0.000000   0.000000   0.000000   0.000000   0.000000   0.000000   0.000000   0.000000
 -2.376658   0.926022   3.974982   0.352805   0.187470  -0.092646  -0.400272  -0.026031   0.066345   0.316658  -0.198095   0.073078  -0.204044   0.041850   0.047671   0.359306  -0.386094   0.083492   0.612415   0.156613   2.209605   0.027916   1.356894  -0.014960   0.228743  -0.553733  -2.703278   0.320004   0.260071  -0.069184   1.144032   0.084821  -2.202390   0.025787  -1.316511   0.020139   0.297687   0.430269   2.399227  -0.761497  -0.082092  -0.093873   1.001794   0.001620   0.000912  -0.629518  -0.464233   0.022881  -0.068263  -0.000096   0.000213  -0.786819  -0.224478   0.269718   0.658424  -0.001034  -0.000196  -0.826118   0.166024   0.128656   0.504234  -0.001350   0.000579
 -2.376530   0.926719   3.973771   0.647233   0.437505  -0.209254  -0.683868  -0.075398   0.154972   0.704630  -0.420126   0.180595  -0.380466   0.080370   0.099231   0.707211  -0.714337   0.834739   1.201577   0.385669   4.948852   0.064235   2.671913  -0.027546   0.492420  -0.730594  -4.738186   0.635453   0.442871  -0.781527   2.271667   0.059358  -4.925228   0.059093  -2.592106   0.036866   0.646229   0.509512   4.119560  -1.479573  -0.159137  -0.338033   2.034412   0.004536   0.002188  -1.214174  -0.904401   0.037150  -0.151960  -0.000326   0.000364  -1.591491  -0.444552   0.694377   1.287980  -0.002572   0.000090  -1.602241   0.323007   0.252734   0.927547  -0.002690   0.001210
 -2.376331   0.927350   3.972394   0.913380   0.700600  -0.334857  -0.888277  -0.129895   0.261207   1.119162  -0.638472   0.310789  -0.535571   0.116370   0.147587   1.036576  -0.962359   2.011578   1.756566   0.679492   8.003697   0.099943   3.913825  -0.036997   0.754629  -0.762870  -5.994364   0.930100   0.542771  -1.891585   3.374625  -0.075317  -7.980815   0.091869  -3.800335   0.049579   0.992820   0.437098   5.114724  -2.148997  -0.224391  -0.718231   3.009022   0.007930   0.003185  -1.759348  -1.316892   0.044954  -0.233811  -0.000610   0.000446  -2.397843  -0.655988   1.228943   1.852385  -0.004146   0.000480  -2.328618   0.470350   0.371806   1.305928  -0.003916   0.001724
 -2.376054   0.927625   3.970967   1.165132   0.952197  -0.465115  -1.036879  -0.180759   0.386274   1.537968  -0.842701   0.464804  -0.674582   0.150099   0.190552   1.347372  -1.136558   3.482487   2.254005   1.020517  11.128293   0.130325   5.085370  -0.043407   1.013750  -0.703773  -6.595398   1.200965   0.577824  -3.256749   4.428116  -0.309146 -11.196516   0.120056  -4.942212   0.058532   1.334490   0.266239   5.539431  -2.773797  -0.277888  -1.211357   3.917465   0.011290   0.003711  -2.268818  -1.703347   0.047429  -0.315525  -0.000924   0.000497  -3.196462  -0.862105   1.845091   2.356478  -0.005540   0.000801  -3.008578   0.608237   0.485852   1.644192  -0.004928   0.002057
 -2.375735   0.927318   3.969582   1.408232   1.182012  -0.594660  -1.147042  -0.224318   0.524109   1.948263  -1.028700   0.628710  -0.799503   0.181599   0.233261   1.637781  -1.253840   5.117304   2.695821   1.394148  14.232281   0.153611   6.188164  -0.047212   1.267869  -0.582665  -6.742787   1.447033   0.569685  -4.789559   5.393092  -0.617173 -14.383328   0.141534  -6.019091   0.063924   1.668849   0.024093   5.524463  -3.354656  -0.320014  -1.794564   4.763606   0.014297   0.003803  -2.745121  -2.065378   0.045484  -0.396234  -0.001235   0.000530  -3.977842  -1.065160   2.521347   2.809198  -0.006685   0.001013  -3.644843   0.736922   0.594779   1.947565  -0.005704   0.002218
 -2.375395   0.926270   3.968300   1.644882   1.386943  -0.721394  -1.232099  -0.259774   0.669677   2.342033  -1.195800   0.798349  -0.911693   0.210971   0.274634   1.907336  -1.331921   6.823614   3.085496   1.784963  17.257397   0.169533   7.223649  -0.048839   1.514410  -0.423974  -6.591940   1.668448   0.537668  -6.393275   6.272551  -0.976664 -17.477510   0.156021  -7.031581   0.066384   1.991506  -0.261356   5.230460  -3.891533  -0.351385  -2.446131   5.553009   0.016792   0.003569  -3.190348  -2.404366   0.039975  -0.474279  -0.001514   0.000550  -4.734210  -1.266250   3.241298   3.218681  -0.007565   0.001125  -4.239937   0.856855   0.698607   2.220827  -0.006253   0.002246
 -2.374799   0.923929   3.966593   1.829526   1.420388  -0.796768  -1.114277  -0.197074   0.877923   2.685424  -1.342640   0.890616  -1.151597   0.090886   0.298677   2.108304  -1.248246   8.051554   3.577626   2.306069  20.008331   0.180656   8.369382  -0.053394   1.648951  -0.418599  -5.612544   2.020267   0.557437  -7.422838   7.153260  -1.603274 -20.542714   0.168292  -8.188424   0.073356   2.242749  -0.514674   4.204136  -4.506655  -0.519762  -3.124474   6.496541   0.019445   0.000738  -3.589292  -2.870973   0.138709  -0.452170  -0.001086   0.000317  -5.477206  -1.182172   3.817792   3.584154  -0.007673   0.001560  -4.431889   1.022012   0.857663   2.487392  -0.006534   0.002641
 -2.373933   0.923093   3.964846   1.998332   1.511552  -0.557676  -0.956437  -0.157088   0.874969   3.038631  -1.489680   0.877707  -1.375684  -0.030587   0.315287   2.267697  -1.086216   9.204013   3.994127   2.871262  22.530704   0.184866   9.462248  -0.056263   1.796095  -0.314820  -4.755339   2.322112   0.501398  -8.388064   7.925030  -2.281708 -23.351067   0.173541  -9.290933   0.077162   2.502125  -0.884273   3.271871  -5.072348  -0.682193  -4.053071   7.366079   0.020538  -0.001168  -3.952456  -3.314439   0.224811  -0.364927  -0.000418  -0.000194  -6.256340  -0.943260   3.526051   4.383231  -0.005750   0.003738  -4.089264   1.307232   0.763245   2.772274  -0.004879   0.003673
 -2.373507   0.922598   3.963164   2.193128   1.514182  -0.448614  -0.804278  -0.073132   0.978900   3.367924  -1.588591   0.902991  -1.579299  -0.143357   0.332374   2.392948  -0.885134  10.176591   4.346292   3.450821  24.829211   0.182913  10.499979  -0.057293   1.948377  -0.119883  -3.981422   2.590465   0.427931  -9.210367   8.607268  -2.963665 -25.930563   0.172417 -10.332094   0.078069   2.752603  -1.318313   2.405895  -5.646009  -0.822064  -4.707245   8.171032   0.019972  -0.002931  -4.293211  -3.727501   0.302644  -0.295645  -0.000059  -0.000530  -6.924349  -0.820518   3.379538   5.012408  -0.004357   0.003818  -3.991100   1.466574   0.851694   3.073605  -0.004026   0.003753
 -2.373408   0.922220   3.961547   2.411059   1.495098  -0.390609  -0.654583   0.019896   1.109288   3.671639  -1.661477   0.950351  -1.768135  -0.248934   0.352592   2.491777  -0.671986  11.005793   4.644695   4.020797  26.921446   0.176499  11.477998  -0.056848   2.098525   0.121679  -3.327553   2.831016   0.351426  -9.903182   9.212526  -3.627510 -28.284579   0.166637 -11.307600   0.076694   2.988976  -1.761690   1.653008  -6.205377  -0.952177  -5.211618   8.913109   0.018567  -0.004181  -4.613218  -4.112123   0.373931  -0.244124   0.000115  -0.000693  -7.544383  -0.728324   3.306584   5.534482  -0.003385   0.003499  -3.960096   1.602906   0.954655   3.333553  -0.003401   0.003539
 -2.373559   0.921878   3.960009   2.643892   1.484022  -0.348110  -0.506352   0.113443   1.242661   3.955245  -1.719917   1.004111  -1.943266  -0.347924   0.372867   2.572571  -0.463504  11.716661   4.899702   4.567146  28.830257   0.167129  12.394924  -0.055330   2.242800   0.377305  -2.786842   3.049089   0.279561 -10.485973   9.751960  -4.263081 -30.433919   0.157804 -12.218241   0.073631   3.210648  -2.187943   1.013653  -6.733602  -1.072771  -5.626619   9.600863   0.016797  -0.004869  -4.912877  -4.470644   0.438924  -0.202554   0.000198  -0.000754  -8.135358  -0.649951   3.265390   5.985592  -0.002687   0.003153  -3.959790   1.726545   1.057905   3.567124  -0.002913   0.003275
 -2.373916   0.921542   3.958556   2.886455   1.492622  -0.306726  -0.360047   0.205787   1.371944   4.222784  -1.768311   1.057783  -2.105567  -0.440626   0.391951   2.641575  -0.268222  12.328434   5.119776   5.082747  30.575539   0.155994  13.251622  -0.053080   2.379830   0.627577  -2.342630   3.249674   0.217266 -10.977776  10.235463  -4.864739 -32.400653   0.147155 -13.066291   0.069393   3.418445  -2.584786   0.472392  -7.223546  -1.184348  -5.980229  10.241696   0.014912  -0.005086  -5.192999  -4.804979   0.498078  -0.167008   0.000233  -0.000756  -8.704191  -0.580588   3.237597   6.383405  -0.002178   0.002863  -3.975957   1.840382   1.157622   3.779299  -0.002521   0.003022
 -2.374520   0.921187   3.956486   3.054457   1.574122  -0.233689   0.099125   0.212709   1.427551   4.452535  -1.798114   1.149988  -2.315671  -0.649815   0.415577   2.630604   0.010054  12.568299   5.184911   5.668933  31.844912   0.144756  14.310247  -0.053859   2.401469   0.641556  -1.220871   3.407514   0.140172 -11.093995  10.674467  -5.489725 -34.025608   0.140222 -14.242859   0.070993   3.548302  -2.827396  -0.616539  -7.540474  -1.376652  -6.271910  10.545569   0.012363  -0.004594  -5.454064  -5.152770   0.591730  -0.072697   0.000256  -0.001018  -9.110082  -0.409002   3.200514   6.476487  -0.001758   0.002504  -3.752768   1.918483   1.225260   3.904215  -0.002110   0.002792
 -2.375352   0.920866   3.953987   3.284664   1.723150  -0.149184   0.598500   0.210410   1.472812   4.683816  -1.827362   1.223780  -2.496798  -0.852345   0.441013   2.552306   0.338673  12.532243   5.194353   6.261092  32.836816   0.130286  15.328036  -0.054688   2.427318   0.780862  -0.372787   3.504428   0.013453 -10.980307  11.042468  -6.105028 -35.376814   0.129400 -15.364998   0.071089   3.674095  -3.193289  -1.482100  -7.879217  -1.557459  -6.492054  10.771102   0.010060  -0.003868  -5.701377  -5.477876   0.677614   0.006162   0.000206  -0.001084  -9.555979  -0.243474   3.157835   6.454905  -0.001399   0.001944  -3.574878   1.994457   1.286265   4.032729  -0.001783   0.002684
 -2.376407   0.920570   3.951260   3.564235   1.943784  -0.060994   1.111274   0.208058   1.514755   4.911818  -1.855298   1.280179  -2.654671  -1.042285   0.466079   2.440071   0.679492  12.309821   5.172609   6.829567  33.622711   0.114811  16.290203  -0.055204   2.456691   0.980476   0.167660   3.561936  -0.136176 -10.715679  11.358331  -6.690407 -36.516533   0.116937 -16.419743   0.069529   3.793462  -3.585990  -2.085559  -8.212618  -1.726251  -6.643973  10.960823   0.008084  -0.003083  -5.933516  -5.780872   0.756761   0.074501   0.000125  -0.001032 -10.031605  -0.091435   3.114459   6.348361  -0.001076   0.001208  -3.441098   2.066098   1.343838   4.148316  -0.001513   0.002606
 -2.377678   0.920278   3.948425   3.882403   2.232969   0.029896   1.622773   0.208359   1.552485   5.135123  -1.880815   1.321872  -2.794565  -1.219698   0.490117   2.313398   1.012644  11.963899   5.134182   7.362142  34.253413   0.099746  17.192929  -0.055276   2.487430   1.194154   0.470227   3.597480  -0.289068 -10.354314  11.636809  -7.236107 -37.492629   0.104295 -17.405462   0.066609   3.906660  -3.963448  -2.486878  -8.522556  -1.885514  -6.737805  11.131119   0.006419  -0.002310  -6.150700  -6.063181   0.829879   0.135035   0.000037  -0.000914 -10.529085   0.047972   3.069137   6.177702  -0.000772   0.000332  -3.342123   2.133532   1.398069   4.251807  -0.001291   0.002540
